<svg width="1334" height="232" viewBox="0 0 1334 232" fill="none" xmlns="http://www.w3.org/2000/svg">
<mask id="path-1-outside-1_119_22" maskUnits="userSpaceOnUse" x="317" y="0" width="993" height="232" fill="black">
<rect fill="white" x="317" width="993" height="232"/>
<path d="M494.6 224L473 167.6H367.1L345.5 224H324.8L409.1 5.29999H431.3L515.6 224H494.6ZM373.7 150.5H466.4L450.5 108.5L420.8 24.5H419.6L389.6 108.5L373.7 150.5ZM515.495 68.9H536.795L567.695 158L583.295 201.8H585.095L599.795 158L630.695 68.9H651.695L594.995 224H573.395L515.495 68.9ZM667.297 179.6C667.297 149 688.897 131.9 723.697 131.9H772.297V119C772.297 91.1 755.797 81.5 732.997 81.5C706.597 81.5 693.397 94.1 692.197 113.9H673.597C675.097 84.5 697.597 65.9 733.897 65.9C790.897 65.9 790.897 111.2 790.897 119.3V209.3H815.497V224H791.197C777.097 224 773.497 217.1 773.497 206.6V197.6H771.697C764.497 215.3 743.497 227 717.097 227C685.297 227 667.297 208.1 667.297 179.6ZM686.797 173V183.8C686.797 201.8 699.997 210.8 719.497 210.8C752.197 210.8 772.297 188.3 772.297 157.1V147.8H723.697C699.997 147.8 686.797 158.3 686.797 173ZM851.019 224V5.29999H869.619V224H851.019ZM927.191 224V5.29999H945.791V224H927.191ZM986.633 146.6C986.633 95 1016.93 65.9 1059.83 65.9C1102.73 65.9 1133.03 95 1133.03 146.6C1133.03 194.9 1106.33 227 1059.83 227C1013.33 227 986.633 194.9 986.633 146.6ZM1006.13 159.2C1006.13 192.8 1031.03 210.8 1059.83 210.8C1088.63 210.8 1113.53 192.8 1113.53 159.2V135.2C1113.53 103.7 1090.43 82.4 1059.83 82.4C1029.23 82.4 1006.13 103.7 1006.13 135.2V159.2ZM1176.8 224V68.9H1193.3L1196 98H1197.8C1207.4 78.2 1227.2 65.9 1250.6 65.9C1283.6 65.9 1304.6 89.6 1304.6 127.7V224H1285.7V129.5C1285.7 98.3 1271.3 83.9 1246.1 83.9C1216.4 83.9 1195.7 107.6 1195.7 143V224H1176.8Z"/>
</mask>
<path d="M494.6 224L473 167.6H367.1L345.5 224H324.8L409.1 5.29999H431.3L515.6 224H494.6ZM373.7 150.5H466.4L450.5 108.5L420.8 24.5H419.6L389.6 108.5L373.7 150.5ZM515.495 68.9H536.795L567.695 158L583.295 201.8H585.095L599.795 158L630.695 68.9H651.695L594.995 224H573.395L515.495 68.9ZM667.297 179.6C667.297 149 688.897 131.9 723.697 131.9H772.297V119C772.297 91.1 755.797 81.5 732.997 81.5C706.597 81.5 693.397 94.1 692.197 113.9H673.597C675.097 84.5 697.597 65.9 733.897 65.9C790.897 65.9 790.897 111.2 790.897 119.3V209.3H815.497V224H791.197C777.097 224 773.497 217.1 773.497 206.6V197.6H771.697C764.497 215.3 743.497 227 717.097 227C685.297 227 667.297 208.1 667.297 179.6ZM686.797 173V183.8C686.797 201.8 699.997 210.8 719.497 210.8C752.197 210.8 772.297 188.3 772.297 157.1V147.8H723.697C699.997 147.8 686.797 158.3 686.797 173ZM851.019 224V5.29999H869.619V224H851.019ZM927.191 224V5.29999H945.791V224H927.191ZM986.633 146.6C986.633 95 1016.93 65.9 1059.83 65.9C1102.73 65.9 1133.03 95 1133.03 146.6C1133.03 194.9 1106.33 227 1059.83 227C1013.33 227 986.633 194.9 986.633 146.6ZM1006.13 159.2C1006.13 192.8 1031.03 210.8 1059.83 210.8C1088.63 210.8 1113.53 192.8 1113.53 159.2V135.2C1113.53 103.7 1090.43 82.4 1059.83 82.4C1029.23 82.4 1006.13 103.7 1006.13 135.2V159.2ZM1176.8 224V68.9H1193.3L1196 98H1197.8C1207.4 78.2 1227.2 65.9 1250.6 65.9C1283.6 65.9 1304.6 89.6 1304.6 127.7V224H1285.7V129.5C1285.7 98.3 1271.3 83.9 1246.1 83.9C1216.4 83.9 1195.7 107.6 1195.7 143V224H1176.8Z" fill="black"/>
<path d="M494.6 224L489.931 225.788L491.161 229H494.6V224ZM473 167.6L477.669 165.812L476.439 162.6H473V167.6ZM367.1 167.6V162.6H363.661L362.431 165.812L367.1 167.6ZM345.5 224V229H348.939L350.169 225.788L345.5 224ZM324.8 224L320.135 222.202L317.514 229H324.8V224ZM409.1 5.29999V0.29999H405.669L404.435 3.50166L409.1 5.29999ZM431.3 5.29999L435.965 3.50166L434.731 0.29999H431.3V5.29999ZM515.6 224V229H522.886L520.265 222.202L515.6 224ZM373.7 150.5L369.024 148.73L366.461 155.5H373.7V150.5ZM466.4 150.5V155.5H473.639L471.076 148.73L466.4 150.5ZM450.5 108.5L445.786 110.167L445.804 110.219L445.824 110.27L450.5 108.5ZM420.8 24.5L425.514 22.8333L424.335 19.5H420.8V24.5ZM419.6 24.5V19.5H416.076L414.891 22.8183L419.6 24.5ZM389.6 108.5L394.276 110.27L394.293 110.226L394.309 110.182L389.6 108.5ZM499.269 222.212L477.669 165.812L468.331 169.388L489.931 225.788L499.269 222.212ZM473 162.6H367.1V172.6H473V162.6ZM362.431 165.812L340.831 222.212L350.169 225.788L371.769 169.388L362.431 165.812ZM345.5 219H324.8V229H345.5V219ZM329.465 225.798L413.765 7.09832L404.435 3.50166L320.135 222.202L329.465 225.798ZM409.1 10.3H431.3V0.29999H409.1V10.3ZM426.635 7.09832L510.935 225.798L520.265 222.202L435.965 3.50166L426.635 7.09832ZM515.6 219H494.6V229H515.6V219ZM373.7 155.5H466.4V145.5H373.7V155.5ZM471.076 148.73L455.176 106.73L445.824 110.27L461.724 152.27L471.076 148.73ZM455.214 106.833L425.514 22.8333L416.086 26.1667L445.786 110.167L455.214 106.833ZM420.8 19.5H419.6V29.5H420.8V19.5ZM414.891 22.8183L384.891 106.818L394.309 110.182L424.309 26.1817L414.891 22.8183ZM384.924 106.73L369.024 148.73L378.376 152.27L394.276 110.27L384.924 106.73ZM515.495 68.9V63.9H508.291L510.81 70.6487L515.495 68.9ZM536.795 68.9L541.519 67.2617L540.353 63.9H536.795V68.9ZM567.695 158L562.971 159.638L562.977 159.658L562.984 159.678L567.695 158ZM583.295 201.8L578.584 203.478L579.768 206.8H583.295V201.8ZM585.095 201.8V206.8H588.691L589.835 203.391L585.095 201.8ZM599.795 158L595.071 156.362L595.062 156.385L595.054 156.409L599.795 158ZM630.695 68.9V63.9H627.136L625.971 67.2617L630.695 68.9ZM651.695 68.9L656.391 70.6167L658.846 63.9H651.695V68.9ZM594.995 224V229H598.49L599.691 225.717L594.995 224ZM573.395 224L568.71 225.749L569.924 229H573.395V224ZM515.495 73.9H536.795V63.9H515.495V73.9ZM532.071 70.5383L562.971 159.638L572.419 156.362L541.519 67.2617L532.071 70.5383ZM562.984 159.678L578.584 203.478L588.005 200.122L572.405 156.322L562.984 159.678ZM583.295 206.8H585.095V196.8H583.295V206.8ZM589.835 203.391L604.535 159.591L595.054 156.409L580.354 200.209L589.835 203.391ZM604.519 159.638L635.419 70.5383L625.971 67.2617L595.071 156.362L604.519 159.638ZM630.695 73.9H651.695V63.9H630.695V73.9ZM646.999 67.1833L590.298 222.283L599.691 225.717L656.391 70.6167L646.999 67.1833ZM594.995 219H573.395V229H594.995V219ZM578.079 222.251L520.179 67.1513L510.81 70.6487L568.71 225.749L578.079 222.251ZM772.297 131.9V136.9H777.297V131.9H772.297ZM692.197 113.9V118.9H696.903L697.188 114.202L692.197 113.9ZM673.597 113.9L668.603 113.645L668.335 118.9H673.597V113.9ZM790.897 209.3H785.897V214.3H790.897V209.3ZM815.497 209.3H820.497V204.3H815.497V209.3ZM815.497 224V229H820.497V224H815.497ZM773.497 197.6H778.497V192.6H773.497V197.6ZM771.697 197.6V192.6H768.333L767.065 195.716L771.697 197.6ZM772.297 147.8H777.297V142.8H772.297V147.8ZM672.297 179.6C672.297 165.57 677.192 155.141 685.642 148.121C694.22 140.995 707.049 136.9 723.697 136.9V126.9C705.544 126.9 690.174 131.355 679.252 140.429C668.202 149.609 662.297 163.03 662.297 179.6H672.297ZM723.697 136.9H772.297V126.9H723.697V136.9ZM777.297 131.9V119H767.297V131.9H777.297ZM777.297 119C777.297 104.039 772.833 93.0663 764.422 85.9667C756.174 79.0043 744.978 76.5 732.997 76.5V86.5C743.816 86.5 752.27 88.7957 757.972 93.6083C763.511 98.2837 767.297 106.061 767.297 119H777.297ZM732.997 76.5C719.054 76.5 707.875 79.826 699.946 86.4339C691.933 93.1114 687.872 102.611 687.206 113.598L697.188 114.202C697.722 105.389 700.861 98.6886 706.348 94.1161C711.918 89.474 720.54 86.5 732.997 86.5V76.5ZM692.197 108.9H673.597V118.9H692.197V108.9ZM678.59 114.155C679.274 100.762 684.678 90.1327 693.831 82.7711C703.069 75.3401 716.563 70.9 733.897 70.9V60.9C714.931 60.9 699.025 65.7599 687.563 74.9789C676.015 84.2673 669.42 97.6376 668.603 113.645L678.59 114.155ZM733.897 70.9C760.8 70.9 773.301 81.4293 779.442 92.063C785.852 103.163 785.897 115.329 785.897 119.3H795.897C795.897 115.171 795.942 100.637 788.102 87.062C779.993 73.0207 763.994 60.9 733.897 60.9V70.9ZM785.897 119.3V209.3H795.897V119.3H785.897ZM790.897 214.3H815.497V204.3H790.897V214.3ZM810.497 209.3V224H820.497V209.3H810.497ZM815.497 219H791.197V229H815.497V219ZM791.197 219C784.87 219 782.145 217.454 780.819 215.942C779.373 214.291 778.497 211.47 778.497 206.6H768.497C768.497 212.23 769.421 218.109 773.299 222.533C777.299 227.096 783.424 229 791.197 229V219ZM778.497 206.6V197.6H768.497V206.6H778.497ZM773.497 192.6H771.697V202.6H773.497V192.6ZM767.065 195.716C760.897 210.881 742.272 222 717.097 222V232C744.721 232 768.097 219.719 776.328 199.484L767.065 195.716ZM717.097 222C702.189 222 691.105 217.588 683.768 210.413C676.437 203.244 672.297 192.783 672.297 179.6H662.297C662.297 194.917 667.156 208.156 676.776 217.562C686.388 226.962 700.205 232 717.097 232V222ZM681.797 173V183.8H691.797V173H681.797ZM681.797 183.8C681.797 194.152 685.665 202.428 692.749 207.984C699.657 213.402 709.063 215.8 719.497 215.8V205.8C710.43 205.8 703.487 203.698 698.92 200.116C694.529 196.672 691.797 191.448 691.797 183.8H681.797ZM719.497 215.8C737.042 215.8 751.606 209.733 761.772 199.106C771.911 188.509 777.297 173.777 777.297 157.1H767.297C767.297 171.623 762.633 183.741 754.546 192.194C746.488 200.617 734.652 205.8 719.497 205.8V215.8ZM777.297 157.1V147.8H767.297V157.1H777.297ZM772.297 142.8H723.697V152.8H772.297V142.8ZM723.697 142.8C711.183 142.8 700.83 145.563 693.458 150.816C685.935 156.176 681.797 163.966 681.797 173H691.797C691.797 167.334 694.259 162.524 699.261 158.959C704.414 155.287 712.511 152.8 723.697 152.8V142.8ZM851.019 224H846.019V229H851.019V224ZM851.019 5.29999V0.29999H846.019V5.29999H851.019ZM869.619 5.29999H874.619V0.29999H869.619V5.29999ZM869.619 224V229H874.619V224H869.619ZM856.019 224V5.29999H846.019V224H856.019ZM851.019 10.3H869.619V0.29999H851.019V10.3ZM864.619 5.29999V224H874.619V5.29999H864.619ZM869.619 219H851.019V229H869.619V219ZM927.191 224H922.191V229H927.191V224ZM927.191 5.29999V0.29999H922.191V5.29999H927.191ZM945.791 5.29999H950.791V0.29999H945.791V5.29999ZM945.791 224V229H950.791V224H945.791ZM932.191 224V5.29999H922.191V224H932.191ZM927.191 10.3H945.791V0.29999H927.191V10.3ZM940.791 5.29999V224H950.791V5.29999H940.791ZM945.791 219H927.191V229H945.791V219ZM991.633 146.6C991.633 121.775 998.907 102.93 1010.78 90.3296C1022.64 77.752 1039.55 70.9 1059.83 70.9V60.9C1037.22 60.9 1017.53 68.598 1003.51 83.4704C989.509 98.3204 981.633 119.825 981.633 146.6H991.633ZM1059.83 70.9C1080.12 70.9 1097.03 77.752 1108.88 90.3296C1120.76 102.93 1128.03 121.775 1128.03 146.6H1138.03C1138.03 119.825 1130.16 98.3204 1116.16 83.4704C1102.14 68.598 1082.45 60.9 1059.83 60.9V70.9ZM1128.03 146.6C1128.03 169.864 1121.61 188.67 1110.13 201.593C1098.72 214.439 1081.86 222 1059.83 222V232C1084.3 232 1104.04 223.511 1117.61 208.232C1131.11 193.03 1138.03 171.636 1138.03 146.6H1128.03ZM1059.83 222C1037.8 222 1020.94 214.439 1009.53 201.593C998.058 188.67 991.633 169.864 991.633 146.6H981.633C981.633 171.636 988.557 193.03 1002.06 208.232C1015.62 223.511 1035.36 232 1059.83 232V222ZM1001.13 159.2C1001.13 177.332 1007.9 191.63 1018.87 201.343C1029.76 210.984 1044.42 215.8 1059.83 215.8V205.8C1046.44 205.8 1034.26 201.616 1025.5 193.857C1016.82 186.17 1011.13 174.668 1011.13 159.2H1001.13ZM1059.83 215.8C1075.24 215.8 1089.91 210.984 1100.8 201.343C1111.77 191.63 1118.53 177.332 1118.53 159.2H1108.53C1108.53 174.668 1102.85 186.17 1094.17 193.857C1085.41 201.616 1073.22 205.8 1059.83 205.8V215.8ZM1118.53 159.2V135.2H1108.53V159.2H1118.53ZM1118.53 135.2C1118.53 100.771 1093.02 77.4 1059.83 77.4V87.4C1087.84 87.4 1108.53 106.629 1108.53 135.2H1118.53ZM1059.83 77.4C1026.64 77.4 1001.13 100.771 1001.13 135.2H1011.13C1011.13 106.629 1031.82 87.4 1059.83 87.4V77.4ZM1001.13 135.2V159.2H1011.13V135.2H1001.13ZM1176.8 224H1171.8V229H1176.8V224ZM1176.8 68.9V63.9H1171.8V68.9H1176.8ZM1193.3 68.9L1198.28 68.4381L1197.86 63.9H1193.3V68.9ZM1196 98L1191.02 98.4619L1191.44 103H1196V98ZM1197.8 98V103H1200.93L1202.3 100.181L1197.8 98ZM1304.6 224V229H1309.6V224H1304.6ZM1285.7 224H1280.7V229H1285.7V224ZM1195.7 224V229H1200.7V224H1195.7ZM1181.8 224V68.9H1171.8V224H1181.8ZM1176.8 73.9H1193.3V63.9H1176.8V73.9ZM1188.32 69.3619L1191.02 98.4619L1200.98 97.5381L1198.28 68.4381L1188.32 69.3619ZM1196 103H1197.8V93H1196V103ZM1202.3 100.181C1211.03 82.181 1229.03 70.9 1250.6 70.9V60.9C1225.37 60.9 1203.77 74.219 1193.3 95.8186L1202.3 100.181ZM1250.6 70.9C1265.83 70.9 1277.9 76.3249 1286.22 85.8097C1294.6 95.3666 1299.6 109.537 1299.6 127.7H1309.6C1309.6 107.763 1304.1 91.0334 1293.73 79.2153C1283.3 67.3251 1268.37 60.9 1250.6 60.9V70.9ZM1299.6 127.7V224H1309.6V127.7H1299.6ZM1304.6 219H1285.7V229H1304.6V219ZM1290.7 224V129.5H1280.7V224H1290.7ZM1290.7 129.5C1290.7 113.221 1286.95 100.417 1279.07 91.6552C1271.1 82.7992 1259.65 78.9 1246.1 78.9V88.9C1257.75 88.9 1266.1 92.2008 1271.63 98.3448C1277.25 104.583 1280.7 114.579 1280.7 129.5H1290.7ZM1246.1 78.9C1229.83 78.9 1215.83 85.4351 1205.97 96.9176C1196.16 108.342 1190.7 124.345 1190.7 143H1200.7C1200.7 126.255 1205.59 112.708 1213.56 103.432C1221.47 94.2149 1232.67 88.9 1246.1 88.9V78.9ZM1190.7 143V224H1200.7V143H1190.7ZM1195.7 219H1176.8V229H1195.7V219Z" fill="black" mask="url(#path-1-outside-1_119_22)"/>
<g clip-path="url(#clip0_119_22)">
<path d="M121.69 5.64307L95.6119 50.6601C93.5877 54.1516 93.5877 58.4545 95.6119 61.9496L154.349 163.342L189.694 224.353C191.718 227.845 195.457 229.996 199.502 229.996H251.654C260.373 229.996 265.824 220.59 261.463 213.064L141.31 5.64307C136.949 -1.8833 126.051 -1.8833 121.693 5.64307H121.69Z" fill="black"/>
<path d="M1.53291 213.017L27.0694 168.938C29.0936 165.446 32.833 163.295 36.8777 163.295H134.732C143.45 163.295 148.901 172.701 144.54 180.227L119.004 224.306C116.979 227.798 113.24 229.949 109.195 229.949H11.3412C2.62313 229.949 -2.82795 220.543 1.53291 213.017Z" fill="black"/>
</g>
<defs>
<clipPath id="clip0_119_22">
<rect width="263" height="230" fill="white"/>
</clipPath>
</defs>
</svg>
